<?xml version="1.0" encoding="UTF-8" standalone="no"?>
<!DOCTYPE svg PUBLIC "-//W3C//DTD SVG 1.1//EN" "http://www.w3.org/Graphics/SVG/1.1/DTD/svg11.dtd">
<svg width="100%" height="100%" viewBox="0 0 107 400" version="1.1" xmlns="http://www.w3.org/2000/svg" xmlns:xlink="http://www.w3.org/1999/xlink" xml:space="preserve" xmlns:serif="http://www.serif.com/" style="fill-rule:evenodd;clip-rule:evenodd;stroke-linecap:round;stroke-linejoin:round;stroke-miterlimit:1.5;">
    <g transform="matrix(1.33333,0,0,1.33333,0,0)">
        <g transform="matrix(0.835529,0,0,0.868348,6.62886,19.6739)">
            <g transform="matrix(1,0,0,1,-11,18.4258)">
                <path d="M19.855,256.84L33.609,242.361L70.056,277.126L82.753,264.404" style="fill:none;stroke:white;stroke-width:4.69px;"/>
            </g>
            <g transform="matrix(1,0,0,1,-15,-5.75806)">
                <path d="M26.063,130.994L26.063,95.648L82.753,131.02" style="fill:none;stroke:white;stroke-width:4.69px;"/>
            </g>
            <g transform="matrix(-1,0,0,1,93.8152,82.4672)">
                <path d="M26.063,130.994L26.063,95.648L82.753,131.02" style="fill:none;stroke:white;stroke-width:4.69px;"/>
            </g>
            <g transform="matrix(0.949434,0,0,1.01255,-160.907,-73.5013)">
                <path d="M181.773,111.324L181.773,77.012L212.354,77.012L212.494,111.212L241.325,111.36L241.442,77.012" style="fill:none;stroke:white;stroke-width:4.78px;"/>
            </g>
        </g>
        <g transform="matrix(0.949832,0,0,0.986937,2.01345,1.9194)">
            <rect x="0" y="0" width="80" height="300" style="fill:none;stroke:rgb(56,4,84);stroke-width:4.14px;"/>
        </g>
        <path d="M2.013,75.215L78,75.215" style="fill:none;stroke:rgb(56,4,84);stroke-width:4px;"/>
        <g id="Layer3">
            <path d="M2.013,150L78,150.12" style="fill:none;stroke:rgb(56,4,84);stroke-width:4px;"/>
        </g>
        <g id="Layer4">
            <path d="M2.013,225.645L78,225.645" style="fill:none;stroke:rgb(56,4,84);stroke-width:4px;"/>
        </g>
    </g>
</svg>
