<?xml version="1.0" encoding="UTF-8" standalone="no"?>
<!DOCTYPE svg PUBLIC "-//W3C//DTD SVG 1.1//EN" "http://www.w3.org/Graphics/SVG/1.1/DTD/svg11.dtd">
<svg width="100%" height="100%" viewBox="0 0 481 350" version="1.1" xmlns="http://www.w3.org/2000/svg" xmlns:xlink="http://www.w3.org/1999/xlink" xml:space="preserve" xmlns:serif="http://www.serif.com/" style="fill-rule:evenodd;clip-rule:evenodd;stroke-linecap:round;stroke-linejoin:round;stroke-miterlimit:1.5;">
    <g id="Layer1">
        <g>
            <path d="M23.881,33.596C23.881,33.596 26.388,13.037 43.938,11.533C61.489,10.029 441.574,11.533 441.574,11.533C441.574,11.533 460.629,12.536 461.13,33.596C461.632,54.656 461.13,169.986 461.13,169.986L456.617,214.613L455.113,303.868C455.113,303.868 455.559,325.242 436.56,325.43C415.501,325.638 44.941,325.43 44.941,325.43C44.941,325.43 29.083,321.854 28.895,307.88C28.721,294.844 28.394,216.619 28.394,216.619L23.881,168.147L23.881,33.596Z" style="fill:none;stroke:white;stroke-width:1.27px;"/>
            <g transform="matrix(0.972112,0,0,0.96314,6.76612,6.44868)">
                <path d="M23.881,33.596C23.881,33.596 23.111,11.675 43.938,11.533C61.551,11.413 441.574,11.533 441.574,11.533C441.574,11.533 461.014,10.201 461.13,33.596C461.235,54.662 461.13,169.986 461.13,169.986L456.617,214.613L455.113,303.868C455.113,303.868 458.006,325.235 436.56,325.43C415.501,325.621 44.941,325.43 44.941,325.43C44.941,325.43 28.124,323.057 28.895,307.88C29.557,294.86 28.394,216.619 28.394,216.619L23.881,168.147L23.881,33.596Z" style="fill:none;stroke:white;stroke-width:1.35px;"/>
            </g>
            <g>
                <g transform="matrix(1,0,0,1,14.0401,11.0315)">
                    <circle cx="61.99" cy="139.398" r="11.282" style="fill:none;stroke:white;stroke-width:1.33px;"/>
                </g>
                <g transform="matrix(1,0,0,1,79.7278,11.0315)">
                    <circle cx="61.99" cy="139.398" r="11.282" style="fill:none;stroke:white;stroke-width:1.33px;"/>
                </g>
                <g transform="matrix(1,0,0,1,147.421,11.0315)">
                    <circle cx="61.99" cy="139.398" r="11.282" style="fill:none;stroke:white;stroke-width:1.33px;"/>
                </g>
                <g transform="matrix(1,0,0,1,213.109,11.0315)">
                    <circle cx="61.99" cy="139.398" r="11.282" style="fill:none;stroke:white;stroke-width:1.33px;"/>
                </g>
                <g transform="matrix(1,0,0,1,280.301,11.0315)">
                    <circle cx="61.99" cy="139.398" r="11.282" style="fill:none;stroke:white;stroke-width:1.33px;"/>
                </g>
                <g transform="matrix(1,0,0,1,346.49,11.0315)">
                    <circle cx="61.99" cy="139.398" r="11.282" style="fill:none;stroke:white;stroke-width:1.33px;"/>
                </g>
                <g transform="matrix(1,0,0,1,346.49,-42.1203)">
                    <circle cx="61.99" cy="139.398" r="11.282" style="fill:none;stroke:white;stroke-width:1.33px;"/>
                </g>
                <g transform="matrix(1,0,0,1,346.49,-94.7708)">
                    <circle cx="61.99" cy="139.398" r="11.282" style="fill:none;stroke:white;stroke-width:1.33px;"/>
                </g>
                <g transform="matrix(1,0,0,1,280.802,-42.1203)">
                    <circle cx="61.99" cy="139.398" r="11.282" style="fill:none;stroke:white;stroke-width:1.33px;"/>
                </g>
                <g transform="matrix(1,0,0,1,14.0401,-42.1203)">
                    <circle cx="61.99" cy="139.398" r="11.282" style="fill:none;stroke:white;stroke-width:1.33px;"/>
                </g>
                <g transform="matrix(1,0,0,1,280.802,-94.7708)">
                    <circle cx="61.99" cy="139.398" r="11.282" style="fill:none;stroke:white;stroke-width:1.33px;"/>
                </g>
                <g transform="matrix(1,0,0,1,122.851,-94.7708)">
                    <circle cx="61.99" cy="139.398" r="11.282" style="fill:none;stroke:white;stroke-width:1.33px;"/>
                </g>
            </g>
            <rect x="200.887" y="85.996" width="83.238" height="22.564" style="fill:none;stroke:white;stroke-width:1.33px;"/>
            <rect x="122.663" y="39.613" width="27.077" height="9.527" style="fill:none;stroke:white;stroke-width:1.33px;"/>
            <g transform="matrix(1,0,0,1,-59.1691,0)">
                <rect x="122.663" y="39.613" width="27.077" height="9.527" style="fill:none;stroke:white;stroke-width:1.33px;"/>
            </g>
            <g>
                <path d="M71.09,217.802L71.09,311.816L50.753,311.816C44.925,311.816 40.2,307.091 40.2,301.263L40.2,217.802L71.09,217.802Z" style="fill:none;stroke:white;stroke-width:1.33px;"/>
                <path d="M84.713,312.199C84.713,312.199 82.602,313.542 82.41,308.554C82.218,303.565 82.218,220.489 82.218,220.489L83.945,217.802L95.649,217.802L97.951,219.721L97.759,264.809C97.759,264.809 100.254,272.484 104.283,272.292C108.312,272.1 110.039,272.292 110.039,272.292L112.149,274.402L111.957,309.321L110.614,311.816L84.713,312.199Z" style="fill:none;stroke:white;stroke-width:1.33px;"/>
                <rect x="108.12" y="217.802" width="19.954" height="44.896" style="fill:none;stroke:white;stroke-width:1.33px;"/>
                <g transform="matrix(1,0,0,1,49.117,0)">
                    <rect x="108.12" y="217.802" width="19.954" height="44.896" style="fill:none;stroke:white;stroke-width:1.33px;"/>
                </g>
                <g transform="matrix(1,0,0,1,117.996,0)">
                    <rect x="108.12" y="217.802" width="19.954" height="44.896" style="fill:none;stroke:white;stroke-width:1.33px;"/>
                </g>
                <g transform="matrix(1,0,0,1,166.729,0)">
                    <rect x="108.12" y="217.802" width="19.954" height="44.896" style="fill:none;stroke:white;stroke-width:1.33px;"/>
                </g>
                <g transform="matrix(1,0,0,1,215.846,0)">
                    <rect x="108.12" y="217.802" width="19.954" height="44.896" style="fill:none;stroke:white;stroke-width:1.33px;"/>
                </g>
                <g transform="matrix(1,0,0,1,284.725,0)">
                    <rect x="108.12" y="217.802" width="19.954" height="44.896" style="fill:none;stroke:white;stroke-width:1.33px;"/>
                </g>
                <path d="M126.539,311.624C126.539,311.624 124.045,312.583 124.045,309.513C124.045,306.443 123.853,275.362 123.853,275.362C123.853,275.362 124.237,271.908 126.539,272.484C128.841,273.059 139.01,271.524 138.818,262.699C138.626,253.873 138.818,220.297 138.818,220.297C138.818,220.297 138.243,218.186 141.312,217.802C144.382,217.419 145.15,217.802 145.15,217.802C145.15,217.802 147.644,218.186 147.26,220.297C146.876,222.407 146.876,262.699 146.876,262.699C146.876,262.699 147.548,270.253 151.865,271.332C154.167,271.908 153.975,273.635 153.975,273.635L154.167,309.705C154.167,309.705 154.743,311.816 152.249,311.816C149.754,311.816 126.539,311.624 126.539,311.624Z" style="fill:none;stroke:white;stroke-width:1.33px;"/>
                <g transform="matrix(1,0,0,1,166.681,0)">
                    <path d="M126.539,311.624C126.539,311.624 124.045,312.583 124.045,309.513C124.045,306.443 123.853,275.362 123.853,275.362C123.853,275.362 124.237,271.908 126.539,272.484C128.841,273.059 139.01,271.524 138.818,262.699C138.626,253.873 138.818,220.297 138.818,220.297C138.818,220.297 138.243,218.186 141.312,217.802C144.382,217.419 145.15,217.802 145.15,217.802C145.15,217.802 147.644,218.186 147.26,220.297C146.876,222.407 146.876,262.699 146.876,262.699C146.876,262.699 147.548,270.253 151.865,271.332C154.167,271.908 153.975,273.635 153.975,273.635L154.167,309.705C154.167,309.705 154.743,311.816 152.249,311.816C149.754,311.816 126.539,311.624 126.539,311.624Z" style="fill:none;stroke:white;stroke-width:1.33px;"/>
                </g>
                <path d="M168.516,311.816C168.516,311.816 167.457,312.223 167.214,309.695C166.971,307.166 167.214,275.139 167.214,275.139C167.214,275.139 166.971,272.751 168.937,272.751C170.904,272.751 181.018,272.33 181.018,272.33C181.018,272.33 186.777,270.462 187.058,264.724C187.339,258.986 187.339,220.216 187.339,220.216C187.339,220.216 187.901,217.777 189.867,217.802C191.834,217.828 193.66,217.802 193.66,217.802C193.66,217.802 196.188,218.531 195.907,220.216C195.626,221.902 195.626,310.116 195.626,310.116C195.626,310.116 195.486,311.83 193.519,311.816C191.553,311.802 168.516,311.816 168.516,311.816Z" style="fill:none;stroke:white;stroke-width:1.33px;"/>
                <g transform="matrix(-1,0,0,1,403.349,0)">
                    <path d="M168.516,311.816C168.516,311.816 167.457,312.223 167.214,309.695C166.971,307.166 167.214,275.139 167.214,275.139C167.214,275.139 166.971,272.751 168.937,272.751C170.904,272.751 181.018,272.33 181.018,272.33C181.018,272.33 186.777,270.462 187.058,264.724C187.339,258.986 187.339,220.216 187.339,220.216C187.339,220.216 187.901,217.777 189.867,217.802C191.834,217.828 193.66,217.802 193.66,217.802C193.66,217.802 196.188,218.531 195.907,220.216C195.626,221.902 195.626,310.116 195.626,310.116C195.626,310.116 195.486,311.83 193.519,311.816C191.553,311.802 168.516,311.816 168.516,311.816Z" style="fill:none;stroke:white;stroke-width:1.33px;"/>
                </g>
                <g transform="matrix(1,0,0,1,166.524,0)">
                    <path d="M168.516,311.816C168.516,311.816 167.457,312.223 167.214,309.695C166.971,307.166 167.214,275.139 167.214,275.139C167.214,275.139 166.971,272.751 168.937,272.751C170.904,272.751 181.018,272.33 181.018,272.33C181.018,272.33 186.777,270.462 187.058,264.724C187.339,258.986 187.339,220.216 187.339,220.216C187.339,220.216 187.901,217.777 189.867,217.802C191.834,217.828 193.66,217.802 193.66,217.802C193.66,217.802 196.188,218.531 195.907,220.216C195.626,221.902 195.626,310.116 195.626,310.116C195.626,310.116 195.486,311.83 193.519,311.816C191.553,311.802 168.516,311.816 168.516,311.816Z" style="fill:none;stroke:white;stroke-width:1.33px;"/>
                </g>
                <g transform="matrix(-1,0,0,1,569.874,0)">
                    <path d="M168.516,311.816C168.516,311.816 167.457,312.223 167.214,309.695C166.971,307.166 167.214,275.139 167.214,275.139C167.214,275.139 166.971,272.751 168.937,272.751C170.904,272.751 181.018,272.33 181.018,272.33C181.018,272.33 186.777,270.462 187.058,264.724C187.339,258.986 187.339,220.216 187.339,220.216C187.339,220.216 187.901,217.777 189.867,217.802C191.834,217.828 193.66,217.802 193.66,217.802C193.66,217.802 196.188,218.531 195.907,220.216C195.626,221.902 195.626,310.116 195.626,310.116C195.626,310.116 195.486,311.83 193.519,311.816C191.553,311.802 168.516,311.816 168.516,311.816Z" style="fill:none;stroke:white;stroke-width:1.33px;"/>
                </g>
                <g transform="matrix(1,0,0,1,-3.15918,0)">
                    <path d="M418.128,311.84C418.128,311.84 416.161,311.802 416.021,309.695C415.88,307.587 416.021,272.751 416.021,272.751C416.021,272.751 423.044,270.363 422.904,266.009C422.763,261.654 423.044,219.935 423.044,219.935C423.044,219.935 423.325,217.917 425.292,217.802C427.258,217.688 443.412,217.802 443.412,217.802C443.412,217.802 445.8,218.812 445.8,220.497C445.8,222.183 445.379,304.216 445.379,304.216C445.379,304.216 445.098,311.738 437.653,311.84C430.208,311.942 418.128,311.84 418.128,311.84Z" style="fill:none;stroke:white;stroke-width:1.33px;"/>
                </g>
                <g transform="matrix(-1,0,0,1,403.493,0)">
                    <path d="M126.539,311.624C126.539,311.624 124.045,312.583 124.045,309.513C124.045,306.443 123.853,275.362 123.853,275.362C123.853,275.362 124.237,271.908 126.539,272.484C128.841,273.059 139.01,271.524 138.818,262.699C138.626,253.873 138.818,220.297 138.818,220.297C138.818,220.297 138.243,218.186 141.312,217.802C144.382,217.419 145.15,217.802 145.15,217.802C145.15,217.802 147.644,218.186 147.26,220.297C146.876,222.407 146.876,262.699 146.876,262.699C146.876,262.699 147.548,270.253 151.865,271.332C154.167,271.908 153.975,273.635 153.975,273.635L154.167,309.705C154.167,309.705 154.743,311.816 152.249,311.816C149.754,311.816 126.539,311.624 126.539,311.624Z" style="fill:none;stroke:white;stroke-width:1.33px;"/>
                </g>
            </g>
        </g>
    </g>
</svg>
