<?xml version="1.0" encoding="UTF-8" standalone="no"?>
<!DOCTYPE svg PUBLIC "-//W3C//DTD SVG 1.1//EN" "http://www.w3.org/Graphics/SVG/1.1/DTD/svg11.dtd">
<svg width="100%" height="100%" viewBox="0 0 150 35" version="1.1" xmlns="http://www.w3.org/2000/svg" xmlns:xlink="http://www.w3.org/1999/xlink" xml:space="preserve" xmlns:serif="http://www.serif.com/" style="fill-rule:evenodd;clip-rule:evenodd;stroke-linecap:round;stroke-linejoin:round;stroke-miterlimit:1.5;">
    <g id="Layer1" transform="matrix(1,0,0,1,0,-4.4697)">
        <g transform="matrix(0.747667,0,0,0.747667,29.5924,7.29602)">
            <path d="M106.419,19.626L106.419,6.744L116.864,6.744L116.864,32.508L128.497,32.508L128.497,6.744L140.404,6.744L140.404,19.626" style="fill:none;stroke:white;stroke-width:1.13px;"/>
        </g>
        <g transform="matrix(0.747667,0,0,0.747667,53.7649,7.29602)">
            <path d="M3.816,21.97L10.454,6.983L24.192,32.508L38.134,6.744L44.567,21.97" style="fill:none;stroke:white;stroke-width:1.04px;"/>
        </g>
        <g transform="matrix(0.747667,0,0,0.747667,3.45943,7.29602)">
            <path d="M3.816,21.97L18.803,6.983L18.803,32.508L44.567,6.744L44.567,21.97" style="fill:none;stroke:white;stroke-width:1.04px;"/>
        </g>
    </g>
</svg>
