<?xml version="1.0" encoding="UTF-8" standalone="no"?>
<!DOCTYPE svg PUBLIC "-//W3C//DTD SVG 1.1//EN" "http://www.w3.org/Graphics/SVG/1.1/DTD/svg11.dtd">
<svg width="100%" height="100%" viewBox="0 0 481 350" version="1.1" xmlns="http://www.w3.org/2000/svg" xmlns:xlink="http://www.w3.org/1999/xlink" xml:space="preserve" xmlns:serif="http://www.serif.com/" style="fill-rule:evenodd;clip-rule:evenodd;stroke-linecap:round;stroke-linejoin:round;stroke-miterlimit:1.5;">
    <g transform="matrix(0.613275,0,0,1.58776,119.118,-5.19007)">
        <path d="M149.741,41.995L149.741,46.759C149.741,48.073 146.978,49.14 143.574,49.14L128.83,49.14C125.426,49.14 122.663,48.073 122.663,46.759L122.663,41.995C122.663,40.68 125.426,39.613 128.83,39.613L143.574,39.613C146.978,39.613 149.741,40.68 149.741,41.995Z" style="fill:none;stroke:white;stroke-width:1.11px;"/>
    </g>
    <g transform="matrix(0.613275,0,0,1.58776,328.118,38.8099)">
        <path d="M149.741,41.995L149.741,46.759C149.741,48.073 146.978,49.14 143.574,49.14L128.83,49.14C125.426,49.14 122.663,48.073 122.663,46.759L122.663,41.995C122.663,40.68 125.426,39.613 128.83,39.613L143.574,39.613C146.978,39.613 149.741,40.68 149.741,41.995Z" style="fill:none;stroke:white;stroke-width:1.11px;"/>
    </g>
    <g transform="matrix(0.613275,0,0,1.58776,328.118,72.8099)">
        <path d="M149.741,41.995L149.741,46.759C149.741,48.073 146.978,49.14 143.574,49.14L128.83,49.14C125.426,49.14 122.663,48.073 122.663,46.759L122.663,41.995C122.663,40.68 125.426,39.613 128.83,39.613L143.574,39.613C146.978,39.613 149.741,40.68 149.741,41.995Z" style="fill:none;stroke:white;stroke-width:1.11px;"/>
    </g>
    <g transform="matrix(0.613275,0,0,1.58776,328.118,106.81)">
        <path d="M149.741,41.995L149.741,46.759C149.741,48.073 146.978,49.14 143.574,49.14L128.83,49.14C125.426,49.14 122.663,48.073 122.663,46.759L122.663,41.995C122.663,40.68 125.426,39.613 128.83,39.613L143.574,39.613C146.978,39.613 149.741,40.68 149.741,41.995Z" style="fill:none;stroke:white;stroke-width:1.11px;"/>
    </g>
    <path d="M21.29,295.177C20.622,286.151 20.956,220.63 20.956,220.63L19.619,206.59L19.953,43.792C19.953,43.792 22.293,31.757 31.653,31.423L439.151,31.423C439.151,31.423 452.269,31.126 451.185,43.792L451.185,203.582L450.517,221.299L449.514,296.514C449.514,296.514 449.18,306.542 437.145,307.545L33.325,308.214C33.325,308.214 21.959,304.202 21.29,295.177Z" style="fill:none;stroke:white;stroke-width:1.33px;"/>
    <g transform="matrix(0.978311,0,0,0.968599,5.10555,5.66676)">
        <path d="M21.29,295.177C20.843,286.137 20.956,220.63 20.956,220.63L19.619,206.59L19.953,43.792C19.953,43.792 19.338,32.13 31.653,31.423L439.151,31.423C439.151,31.423 451.185,30.251 451.185,43.792L451.185,203.582L450.517,221.299L449.514,296.514C449.514,296.514 451.396,308.035 437.145,307.545L33.325,308.214C33.325,308.214 21.959,308.679 21.29,295.177Z" style="fill:none;stroke:white;stroke-width:1.37px;"/>
    </g>
    <g transform="matrix(0.738516,0,0,0.738516,326.843,-38.3107)">
        <circle cx="61.99" cy="139.398" r="11.282" style="fill:none;stroke:white;stroke-width:1.81px;"/>
    </g>
    <g transform="matrix(0.738516,0,0,0.738516,297.843,-38.3107)">
        <circle cx="61.99" cy="139.398" r="11.282" style="fill:none;stroke:white;stroke-width:1.81px;"/>
    </g>
    <g transform="matrix(0.738516,0,0,0.738516,263.843,-38.3107)">
        <circle cx="61.99" cy="139.398" r="11.282" style="fill:none;stroke:white;stroke-width:1.81px;"/>
    </g>
    <g transform="matrix(0.738516,0,0,0.738516,2.84282,-38.3107)">
        <circle cx="61.99" cy="139.398" r="11.282" style="fill:none;stroke:white;stroke-width:1.81px;"/>
    </g>
    <g transform="matrix(0.532642,0,0,1,30.8627,0)">
        <path d="M72.623,58.498L72.623,70.776C72.623,71.987 70.779,72.969 68.507,72.969C66.235,72.969 64.39,71.987 64.39,70.776L64.39,58.498C64.39,57.288 66.235,56.305 68.507,56.305C70.779,56.305 72.623,57.288 72.623,58.498Z" style="fill:none;stroke:white;stroke-width:1.66px;"/>
    </g>
    <g transform="matrix(3.99109,0,0,0.67672,-165.679,52.0503)">
        <path d="M72.623,59.928L72.623,69.347C72.623,71.346 72.348,72.969 72.009,72.969L65.004,72.969C64.665,72.969 64.39,71.346 64.39,69.347L64.39,59.928C64.39,57.928 64.665,56.305 65.004,56.305L72.009,56.305C72.348,56.305 72.623,57.928 72.623,59.928Z" style="fill:none;stroke:white;stroke-width:0.47px;"/>
    </g>
    <g transform="matrix(8.94509,0,0,0.67672,-443.394,52.0503)">
        <path d="M72.623,59.928L72.623,69.347C72.623,71.346 72.501,72.969 72.349,72.969L64.664,72.969C64.513,72.969 64.39,71.346 64.39,69.347L64.39,59.928C64.39,57.928 64.513,56.305 64.664,56.305L72.349,56.305C72.501,56.305 72.623,57.928 72.623,59.928Z" style="fill:none;stroke:white;stroke-width:0.21px;"/>
    </g>
    <g transform="matrix(8.94509,0,0,0.67672,-361.394,52.0503)">
        <path d="M72.623,59.928L72.623,69.347C72.623,71.346 72.501,72.969 72.349,72.969L64.664,72.969C64.513,72.969 64.39,71.346 64.39,69.347L64.39,59.928C64.39,57.928 64.513,56.305 64.664,56.305L72.349,56.305C72.501,56.305 72.623,57.928 72.623,59.928Z" style="fill:none;stroke:white;stroke-width:0.21px;"/>
    </g>
    <g transform="matrix(10.9392,0,0,0.67672,-406.231,52.0503)">
        <path d="M72.623,59.928L72.623,69.347C72.623,71.346 72.523,72.969 72.399,72.969L64.614,72.969C64.49,72.969 64.39,71.346 64.39,69.347L64.39,59.928C64.39,57.928 64.49,56.305 64.614,56.305L72.399,56.305C72.523,56.305 72.623,57.928 72.623,59.928Z" style="fill:none;stroke:white;stroke-width:0.17px;"/>
    </g>
    <g>
        <path d="M63.364,226.371L63.364,255.487C63.364,257.293 61.898,258.758 60.093,258.758L53.551,258.758C51.746,258.758 50.281,257.293 50.281,255.487L50.281,226.371C50.281,224.566 51.746,223.1 53.551,223.1L60.093,223.1C61.898,223.1 63.364,224.566 63.364,226.371Z" style="fill:none;stroke:white;stroke-width:1.33px;"/>
        <g transform="matrix(1,0,0,1,26,0)">
            <path d="M63.364,226.371L63.364,255.487C63.364,257.293 61.898,258.758 60.093,258.758L53.551,258.758C51.746,258.758 50.281,257.293 50.281,255.487L50.281,226.371C50.281,224.566 51.746,223.1 53.551,223.1L60.093,223.1C61.898,223.1 63.364,224.566 63.364,226.371Z" style="fill:none;stroke:white;stroke-width:1.33px;"/>
        </g>
        <g transform="matrix(1,0,0,1,52,0)">
            <path d="M63.364,226.371L63.364,255.487C63.364,257.293 61.898,258.758 60.093,258.758L53.551,258.758C51.746,258.758 50.281,257.293 50.281,255.487L50.281,226.371C50.281,224.566 51.746,223.1 53.551,223.1L60.093,223.1C61.898,223.1 63.364,224.566 63.364,226.371Z" style="fill:none;stroke:white;stroke-width:1.33px;"/>
        </g>
        <g transform="matrix(1,0,0,1,102,0)">
            <path d="M63.364,226.371L63.364,255.487C63.364,257.293 61.898,258.758 60.093,258.758L53.551,258.758C51.746,258.758 50.281,257.293 50.281,255.487L50.281,226.371C50.281,224.566 51.746,223.1 53.551,223.1L60.093,223.1C61.898,223.1 63.364,224.566 63.364,226.371Z" style="fill:none;stroke:white;stroke-width:1.33px;"/>
        </g>
        <g transform="matrix(1,0,0,1,128,0)">
            <path d="M63.364,226.371L63.364,255.487C63.364,257.293 61.898,258.758 60.093,258.758L53.551,258.758C51.746,258.758 50.281,257.293 50.281,255.487L50.281,226.371C50.281,224.566 51.746,223.1 53.551,223.1L60.093,223.1C61.898,223.1 63.364,224.566 63.364,226.371Z" style="fill:none;stroke:white;stroke-width:1.33px;"/>
        </g>
        <g transform="matrix(1,0,0,1,179,0)">
            <path d="M63.364,226.371L63.364,255.487C63.364,257.293 61.898,258.758 60.093,258.758L53.551,258.758C51.746,258.758 50.281,257.293 50.281,255.487L50.281,226.371C50.281,224.566 51.746,223.1 53.551,223.1L60.093,223.1C61.898,223.1 63.364,224.566 63.364,226.371Z" style="fill:none;stroke:white;stroke-width:1.33px;"/>
        </g>
        <g transform="matrix(1,0,0,1,205,0)">
            <path d="M63.364,226.371L63.364,255.487C63.364,257.293 61.898,258.758 60.093,258.758L53.551,258.758C51.746,258.758 50.281,257.293 50.281,255.487L50.281,226.371C50.281,224.566 51.746,223.1 53.551,223.1L60.093,223.1C61.898,223.1 63.364,224.566 63.364,226.371Z" style="fill:none;stroke:white;stroke-width:1.33px;"/>
        </g>
        <g transform="matrix(1,0,0,1,230,0)">
            <path d="M63.364,226.371L63.364,255.487C63.364,257.293 61.898,258.758 60.093,258.758L53.551,258.758C51.746,258.758 50.281,257.293 50.281,255.487L50.281,226.371C50.281,224.566 51.746,223.1 53.551,223.1L60.093,223.1C61.898,223.1 63.364,224.566 63.364,226.371Z" style="fill:none;stroke:white;stroke-width:1.33px;"/>
        </g>
        <g transform="matrix(1,0,0,1,281,0)">
            <path d="M63.364,226.371L63.364,255.487C63.364,257.293 61.898,258.758 60.093,258.758L53.551,258.758C51.746,258.758 50.281,257.293 50.281,255.487L50.281,226.371C50.281,224.566 51.746,223.1 53.551,223.1L60.093,223.1C61.898,223.1 63.364,224.566 63.364,226.371Z" style="fill:none;stroke:white;stroke-width:1.33px;"/>
        </g>
        <g transform="matrix(1,0,0,1,306,0)">
            <path d="M63.364,226.371L63.364,255.487C63.364,257.293 61.898,258.758 60.093,258.758L53.551,258.758C51.746,258.758 50.281,257.293 50.281,255.487L50.281,226.371C50.281,224.566 51.746,223.1 53.551,223.1L60.093,223.1C61.898,223.1 63.364,224.566 63.364,226.371Z" style="fill:none;stroke:white;stroke-width:1.33px;"/>
        </g>
        <g transform="matrix(1,0,0,1,357,0)">
            <path d="M63.364,226.371L63.364,255.487C63.364,257.293 61.898,258.758 60.093,258.758L53.551,258.758C51.746,258.758 50.281,257.293 50.281,255.487L50.281,226.371C50.281,224.566 51.746,223.1 53.551,223.1L60.093,223.1C61.898,223.1 63.364,224.566 63.364,226.371Z" style="fill:none;stroke:white;stroke-width:1.33px;"/>
        </g>
    </g>
    <path d="M32.474,225.223C32.474,225.223 32.474,223.286 34.271,223.1L44.878,223.1C44.878,223.1 46.759,222.743 46.674,224.453L46.93,260.209C46.93,260.209 46.845,262.176 49.155,262.347L53.517,262.347C53.517,262.347 55.142,263.032 55.142,263.887L55.142,294.168C55.142,294.168 55.399,295.28 53.859,295.536L37.949,295.365C37.949,295.365 32.731,294.767 32.645,289.634L32.474,225.223Z" style="fill:none;stroke:white;stroke-width:1.33px;"/>
    <g transform="matrix(1,0,0,1,102,0)">
        <path d="M32.474,225.223C32.474,225.223 32.474,223.286 34.271,223.1L44.878,223.1C44.878,223.1 46.759,222.743 46.674,224.453L46.93,260.209C46.93,260.209 46.845,262.176 49.155,262.347L53.517,262.347C53.517,262.347 55.142,263.032 55.142,263.887L55.142,294.168C55.142,294.168 55.399,295.28 53.859,295.536L35.276,295.536C35.276,295.536 32.624,295.515 32.966,292.628L32.474,225.223Z" style="fill:none;stroke:white;stroke-width:1.33px;"/>
    </g>
    <g transform="matrix(1,0,0,1,178.558,0)">
        <path d="M32.474,225.223C32.474,225.223 32.474,223.286 34.271,223.1L44.878,223.1C44.878,223.1 46.759,222.743 46.674,224.453L46.93,260.209C46.93,260.209 46.845,262.176 49.155,262.347L53.517,262.347C53.517,262.347 55.142,263.032 55.142,263.887L55.142,294.168C55.142,294.168 55.399,295.28 53.859,295.536L35.276,295.536C35.276,295.536 32.624,295.515 32.966,292.628L32.474,225.223Z" style="fill:none;stroke:white;stroke-width:1.33px;"/>
    </g>
    <g transform="matrix(1,0,0,1,280.991,0)">
        <path d="M32.474,225.223C32.474,225.223 32.474,223.286 34.271,223.1L44.878,223.1C44.878,223.1 46.759,222.743 46.674,224.453L46.93,260.209C46.93,260.209 46.845,262.176 49.155,262.347L53.517,262.347C53.517,262.347 55.142,263.032 55.142,263.887L55.142,294.168C55.142,294.168 55.399,295.28 53.859,295.536L35.276,295.536C35.276,295.536 32.624,295.515 32.966,292.628L32.474,225.223Z" style="fill:none;stroke:white;stroke-width:1.33px;"/>
    </g>
    <g transform="matrix(1,0,0,1,357.762,0)">
        <path d="M32.474,225.223C32.474,225.223 32.474,223.286 34.271,223.1L44.878,223.1C44.878,223.1 46.759,222.743 46.674,224.453L46.93,260.209C46.93,260.209 46.845,262.176 49.155,262.347L53.517,262.347C53.517,262.347 55.142,263.032 55.142,263.887L55.142,294.168C55.142,294.168 55.399,295.28 53.859,295.536L35.276,295.536C35.276,295.536 32.624,295.515 32.966,292.628L32.474,225.223Z" style="fill:none;stroke:white;stroke-width:1.33px;"/>
    </g>
    <g transform="matrix(-1,0,0,1,419.84,0)">
        <path d="M32.474,225.223C32.474,225.223 32.474,223.286 34.271,223.1L44.878,223.1C44.878,223.1 46.759,222.743 46.674,224.453L46.93,260.209C46.93,260.209 46.845,262.176 49.155,262.347L53.517,262.347C53.517,262.347 55.142,263.032 55.142,263.887L55.142,294.168C55.142,294.168 55.399,295.28 53.859,295.536L35.276,295.536C35.276,295.536 32.624,295.515 32.966,292.628L32.474,225.223Z" style="fill:none;stroke:white;stroke-width:1.33px;"/>
    </g>
    <g transform="matrix(-1,0,0,1,343.603,0)">
        <path d="M32.474,225.223C32.474,225.223 32.474,223.286 34.271,223.1L44.878,223.1C44.878,223.1 46.759,222.743 46.674,224.453L46.93,260.209C46.93,260.209 46.845,262.176 49.155,262.347L53.517,262.347C53.517,262.347 55.142,263.032 55.142,263.887L55.142,294.168C55.142,294.168 55.399,295.28 53.859,295.536L35.276,295.536C35.276,295.536 32.624,295.515 32.966,292.628L32.474,225.223Z" style="fill:none;stroke:white;stroke-width:1.33px;"/>
    </g>
    <g transform="matrix(-1,0,0,1,241.17,0)">
        <path d="M32.474,225.223C32.474,225.223 32.474,223.286 34.271,223.1L44.878,223.1C44.878,223.1 46.759,222.743 46.674,224.453L46.93,260.209C46.93,260.209 46.845,262.176 49.155,262.347L53.517,262.347C53.517,262.347 55.142,263.032 55.142,263.887L55.142,294.168C55.142,294.168 55.399,295.28 53.859,295.536L35.276,295.536C35.276,295.536 32.624,295.515 32.966,292.628L32.474,225.223Z" style="fill:none;stroke:white;stroke-width:1.33px;"/>
    </g>
    <g transform="matrix(-1,0,0,1,164.612,0)">
        <path d="M32.474,225.223C32.474,225.223 32.474,223.286 34.271,223.1L44.878,223.1C44.878,223.1 46.759,222.743 46.674,224.453L46.93,260.209C46.93,260.209 46.845,262.176 49.155,262.347L53.517,262.347C53.517,262.347 55.142,263.032 55.142,263.887L55.142,294.168C55.142,294.168 55.399,295.28 53.859,295.536L35.276,295.536C35.276,295.536 32.624,295.515 32.966,292.628L32.474,225.223Z" style="fill:none;stroke:white;stroke-width:1.33px;"/>
    </g>
    <path d="M64.418,262.333C64.418,262.333 66.271,262.45 66.496,259.303L66.552,224.089C66.552,224.089 66.552,222.948 68.012,223.069L71.101,223.069C71.101,223.069 72.561,222.91 72.449,224.201L72.505,259.303C72.505,259.303 72.056,262.22 75.032,262.333L79.188,262.277C79.188,262.277 80.929,262.501 80.648,264.186L80.704,294.118C80.704,294.118 80.76,295.832 79.244,295.536L59.701,295.536C59.701,295.536 57.848,295.578 58.185,293.781L58.185,263.68C58.185,263.68 58.016,262.277 59.532,262.333L64.418,262.333Z" style="fill:none;stroke:white;stroke-width:1.33px;"/>
    <g transform="matrix(1,0,0,1,25.6081,0)">
        <path d="M64.418,262.333C64.418,262.333 66.271,262.45 66.496,259.303L66.552,224.089C66.552,224.089 66.552,222.948 68.012,223.069L71.101,223.069C71.101,223.069 72.561,222.91 72.449,224.201L72.505,259.303C72.505,259.303 72.056,262.22 75.032,262.333L79.188,262.277C79.188,262.277 80.929,262.501 80.648,264.186L80.704,294.118C80.704,294.118 80.76,295.832 79.244,295.536L59.701,295.536C59.701,295.536 57.848,295.578 58.185,293.781L58.185,263.68C58.185,263.68 58.016,262.277 59.532,262.333L64.418,262.333Z" style="fill:none;stroke:white;stroke-width:1.33px;"/>
    </g>
    <g transform="matrix(1,0,0,1,102.282,0)">
        <path d="M64.418,262.333C64.418,262.333 66.271,262.45 66.496,259.303L66.552,224.089C66.552,224.089 66.552,222.948 68.012,223.069L71.101,223.069C71.101,223.069 72.561,222.91 72.449,224.201L72.505,259.303C72.505,259.303 72.056,262.22 75.032,262.333L79.188,262.277C79.188,262.277 80.929,262.501 80.648,264.186L80.704,294.118C80.704,294.118 80.76,295.832 79.244,295.536L59.701,295.536C59.701,295.536 57.848,295.578 58.185,293.781L58.185,263.68C58.185,263.68 58.016,262.277 59.532,262.333L64.418,262.333Z" style="fill:none;stroke:white;stroke-width:1.33px;"/>
    </g>
    <g transform="matrix(1,0,0,1,178.994,0)">
        <path d="M64.418,262.333C64.418,262.333 66.271,262.45 66.496,259.303L66.552,224.089C66.552,224.089 66.552,222.948 68.012,223.069L71.101,223.069C71.101,223.069 72.561,222.91 72.449,224.201L72.505,259.303C72.505,259.303 72.056,262.22 75.032,262.333L79.188,262.277C79.188,262.277 80.929,262.501 80.648,264.186L80.704,294.118C80.704,294.118 80.76,295.832 79.244,295.536L59.701,295.536C59.701,295.536 57.848,295.578 58.185,293.781L58.185,263.68C58.185,263.68 58.016,262.277 59.532,262.333L64.418,262.333Z" style="fill:none;stroke:white;stroke-width:1.33px;"/>
    </g>
    <g transform="matrix(1,0,0,1,204.602,0)">
        <path d="M64.418,262.333C64.418,262.333 66.271,262.45 66.496,259.303L66.552,224.089C66.552,224.089 66.552,222.948 68.012,223.069L71.101,223.069C71.101,223.069 72.561,222.91 72.449,224.201L72.505,259.303C72.505,259.303 72.056,262.22 75.032,262.333L79.188,262.277C79.188,262.277 80.929,262.501 80.648,264.186L80.704,294.118C80.704,294.118 80.76,295.832 79.244,295.536L59.701,295.536C59.701,295.536 57.848,295.578 58.185,293.781L58.185,263.68C58.185,263.68 58.016,262.277 59.532,262.333L64.418,262.333Z" style="fill:none;stroke:white;stroke-width:1.33px;"/>
    </g>
    <g transform="matrix(1,0,0,1,281.202,0)">
        <path d="M64.418,262.333C64.418,262.333 66.271,262.45 66.496,259.303L66.552,224.089C66.552,224.089 66.552,222.948 68.012,223.069L71.101,223.069C71.101,223.069 72.561,222.91 72.449,224.201L72.505,259.303C72.505,259.303 72.056,262.22 75.032,262.333L79.188,262.277C79.188,262.277 80.929,262.501 80.648,264.186L80.704,294.118C80.704,294.118 80.76,295.832 79.244,295.536L59.701,295.536C59.701,295.536 57.848,295.578 58.185,293.781L58.185,263.68C58.185,263.68 58.016,262.277 59.532,262.333L64.418,262.333Z" style="fill:none;stroke:white;stroke-width:1.33px;"/>
    </g>
    <g transform="matrix(-1,0,0,1,471.164,0)">
        <path d="M32.474,225.223C32.474,225.223 32.474,223.286 34.271,223.1L44.878,223.1C44.878,223.1 46.759,222.743 46.674,224.453L46.93,260.209C46.93,260.209 46.845,262.176 49.155,262.347L53.517,262.347C53.517,262.347 55.142,263.032 55.142,263.887L55.142,294.168C55.142,294.168 55.399,295.28 53.859,295.536L37.093,295.536C37.093,295.536 33.136,294.761 32.944,289.521L32.474,225.223Z" style="fill:none;stroke:white;stroke-width:1.33px;"/>
    </g>
    <g transform="matrix(0.231989,0,0,0.815269,292.697,110.48)">
        <path d="M72.623,57.476L72.623,71.798C72.623,72.444 70.779,72.969 68.507,72.969C66.235,72.969 64.39,72.444 64.39,71.798L64.39,57.476C64.39,56.83 66.235,56.305 68.507,56.305C70.779,56.305 72.623,56.83 72.623,57.476Z" style="fill:none;stroke:white;stroke-width:2.22px;"/>
    </g>
    <g transform="matrix(0.231989,0,0,0.815269,315.697,110.48)">
        <path d="M72.623,57.476L72.623,71.798C72.623,72.444 70.779,72.969 68.507,72.969C66.235,72.969 64.39,72.444 64.39,71.798L64.39,57.476C64.39,56.83 66.235,56.305 68.507,56.305C70.779,56.305 72.623,56.83 72.623,57.476Z" style="fill:none;stroke:white;stroke-width:2.22px;"/>
    </g>
    <g transform="matrix(0.231989,0,0,0.815269,337.697,110.48)">
        <path d="M72.623,57.476L72.623,71.798C72.623,72.444 70.779,72.969 68.507,72.969C66.235,72.969 64.39,72.444 64.39,71.798L64.39,57.476C64.39,56.83 66.235,56.305 68.507,56.305C70.779,56.305 72.623,56.83 72.623,57.476Z" style="fill:none;stroke:white;stroke-width:2.22px;"/>
    </g>
    <g transform="matrix(0.231989,0,0,0.815269,360.697,110.48)">
        <path d="M72.623,57.476L72.623,71.798C72.623,72.444 70.779,72.969 68.507,72.969C66.235,72.969 64.39,72.444 64.39,71.798L64.39,57.476C64.39,56.83 66.235,56.305 68.507,56.305C70.779,56.305 72.623,56.83 72.623,57.476Z" style="fill:none;stroke:white;stroke-width:2.22px;"/>
    </g>
    <g transform="matrix(0.844215,0,0,3.92718,250.801,-111.563)">
        <path d="M72.623,57.19L72.623,72.084C72.623,72.573 70.779,72.969 68.507,72.969C66.235,72.969 64.39,72.573 64.39,72.084L64.39,57.19C64.39,56.702 66.235,56.305 68.507,56.305C70.779,56.305 72.623,56.702 72.623,57.19Z" style="fill:none;stroke:white;stroke-width:0.47px;"/>
    </g>
    <g transform="matrix(0.844215,0,0,3.92718,273.801,-111.563)">
        <path d="M72.623,57.19L72.623,72.084C72.623,72.573 70.779,72.969 68.507,72.969C66.235,72.969 64.39,72.573 64.39,72.084L64.39,57.19C64.39,56.702 66.235,56.305 68.507,56.305C70.779,56.305 72.623,56.702 72.623,57.19Z" style="fill:none;stroke:white;stroke-width:0.47px;"/>
    </g>
    <g transform="matrix(0.844215,0,0,3.92718,295.801,-111.563)">
        <path d="M72.623,57.19L72.623,72.084C72.623,72.573 70.779,72.969 68.507,72.969C66.235,72.969 64.39,72.573 64.39,72.084L64.39,57.19C64.39,56.702 66.235,56.305 68.507,56.305C70.779,56.305 72.623,56.702 72.623,57.19Z" style="fill:none;stroke:white;stroke-width:0.47px;"/>
    </g>
    <g transform="matrix(0.844215,0,0,3.92718,318.801,-111.563)">
        <path d="M72.623,57.19L72.623,72.084C72.623,72.573 70.779,72.969 68.507,72.969C66.235,72.969 64.39,72.573 64.39,72.084L64.39,57.19C64.39,56.702 66.235,56.305 68.507,56.305C70.779,56.305 72.623,56.702 72.623,57.19Z" style="fill:none;stroke:white;stroke-width:0.47px;"/>
    </g>
    <g transform="matrix(0.522506,0,0,0.522506,244.233,-8.19933)">
        <circle cx="61.99" cy="139.398" r="11.282" style="fill:none;stroke:white;stroke-width:2.55px;"/>
    </g>
    <g transform="matrix(0.522506,0,0,0.522506,240.233,46.8007)">
        <circle cx="61.99" cy="139.398" r="11.282" style="fill:none;stroke:white;stroke-width:2.55px;"/>
    </g>
    <g transform="matrix(0.522506,0,0,0.522506,240.233,91.8007)">
        <circle cx="61.99" cy="139.398" r="11.282" style="fill:none;stroke:white;stroke-width:2.55px;"/>
    </g>
    <g transform="matrix(0.522506,0,0,0.522506,198.233,91.8007)">
        <circle cx="61.99" cy="139.398" r="11.282" style="fill:none;stroke:white;stroke-width:2.55px;"/>
    </g>
    <g transform="matrix(0.522506,0,0,0.522506,198.233,46.8007)">
        <circle cx="61.99" cy="139.398" r="11.282" style="fill:none;stroke:white;stroke-width:2.55px;"/>
    </g>
    <g transform="matrix(0.522506,0,0,0.522506,157.233,46.8007)">
        <circle cx="61.99" cy="139.398" r="11.282" style="fill:none;stroke:white;stroke-width:2.55px;"/>
    </g>
    <g transform="matrix(0.522506,0,0,0.522506,116.233,46.8007)">
        <circle cx="61.99" cy="139.398" r="11.282" style="fill:none;stroke:white;stroke-width:2.55px;"/>
    </g>
    <g transform="matrix(0.522506,0,0,0.522506,75.2332,46.8007)">
        <circle cx="61.99" cy="139.398" r="11.282" style="fill:none;stroke:white;stroke-width:2.55px;"/>
    </g>
    <g transform="matrix(0.522506,0,0,0.522506,75.2332,91.8007)">
        <circle cx="61.99" cy="139.398" r="11.282" style="fill:none;stroke:white;stroke-width:2.55px;"/>
    </g>
    <g transform="matrix(0.522506,0,0,0.522506,116.233,91.8007)">
        <circle cx="61.99" cy="139.398" r="11.282" style="fill:none;stroke:white;stroke-width:2.55px;"/>
    </g>
    <g transform="matrix(0.974984,0,0,0.974984,1.18414,-27.274)">
        <circle cx="61.99" cy="139.398" r="11.282" style="fill:none;stroke:white;stroke-width:1.37px;"/>
    </g>
    <g transform="matrix(1.27033,0,0,1.27033,332.876,-112.444)">
        <circle cx="61.99" cy="139.398" r="11.282" style="fill:none;stroke:white;stroke-width:1.05px;"/>
    </g>
    <path d="M24.299,194.112L446.505,194.112" style="fill:none;stroke:white;stroke-width:1.33px;"/>
    <g transform="matrix(0.974984,0,0,0.974984,1.18414,21.726)">
        <circle cx="61.99" cy="139.398" r="11.282" style="fill:none;stroke:white;stroke-width:1.37px;"/>
    </g>
    <g transform="matrix(0.522506,0,0,0.522506,211.233,-8.19933)">
        <circle cx="61.99" cy="139.398" r="11.282" style="fill:none;stroke:white;stroke-width:2.55px;"/>
    </g>
    <g transform="matrix(0.993644,0,0,0.996504,1.62605,0.769099)">
        <g id="Layer3">
            <path d="M446.505,220.022L24.299,220.022" style="fill:none;stroke:white;stroke-width:1.34px;"/>
        </g>
    </g>
    <g id="Layer4">
        <path d="M128.01,101.247L128.01,186.672" style="fill:none;stroke:white;stroke-width:1.33px;"/>
        <g transform="matrix(1,0,0,1,83,0)">
            <path d="M128.01,101.247L128.01,186.672" style="fill:none;stroke:white;stroke-width:1.33px;"/>
        </g>
        <g transform="matrix(1,0,0,1,165,0)">
            <path d="M128.01,101.247L128.01,186.672" style="fill:none;stroke:white;stroke-width:1.33px;"/>
        </g>
    </g>
</svg>
